<?xml version="1.0" encoding="UTF-8" standalone="no"?>
<svg
   width="64"
   height="64"
   version="1.1"
   viewBox="0 0 16.933 16.933"
   id="svg9"
   sodipodi:docname="default-folder-build.svg"
   inkscape:version="1.4.2 (ebf0e940d0, 2025-05-08)"
   xmlns:inkscape="http://www.inkscape.org/namespaces/inkscape"
   xmlns:sodipodi="http://sodipodi.sourceforge.net/DTD/sodipodi-0.dtd"
   xmlns="http://www.w3.org/2000/svg"
   xmlns:svg="http://www.w3.org/2000/svg">
  <sodipodi:namedview
     id="namedview9"
     pagecolor="#ffffff"
     bordercolor="#000000"
     borderopacity="0.25"
     inkscape:showpageshadow="2"
     inkscape:pageopacity="0.0"
     inkscape:pagecheckerboard="0"
     inkscape:deskcolor="#d1d1d1"
     inkscape:zoom="10.860718"
     inkscape:cx="1.9335738"
     inkscape:cy="39.822412"
     inkscape:window-width="1920"
     inkscape:window-height="1223"
     inkscape:window-x="0"
     inkscape:window-y="0"
     inkscape:window-maximized="1"
     inkscape:current-layer="svg9" />
  <defs
     id="defs2">
    <linearGradient
       id="c-3"
       x1="-197.1"
       x2="-196.91"
       y1="217.68"
       y2="219.37"
       gradientTransform="rotate(-45 -338.07 -140.03)"
       gradientUnits="userSpaceOnUse">
      <stop
         offset="0"
         id="stop1" />
      <stop
         stop-opacity="0"
         offset="1"
         id="stop2" />
    </linearGradient>
  </defs>
  <path
     d="m3.175 2.381c-0.293 0-0.265 0.264-0.265 0.53h-1.058c-0.265 0-0.265 0-0.265 0.264v5.556c0 0.293 0.237 0.53 0.53 0.53h12.7a0.529 0.529 0 0 0 0.529-0.53v-5.556c0-0.265 0-0.265-0.265-0.265h-7.408c0-0.265 0.028-0.53-0.265-0.53z"
     fill="#ffffff"
     fill-opacity=".976"
     stroke="#000000"
     stroke-opacity=".268"
     stroke-width=".529"
     paint-order="markers stroke fill"
     id="path2" />
  <path
     d="m3.175 2.381c-0.293 0-0.265 0.264-0.265 0.53h-1.058c-0.265 0-0.265 0-0.265 0.264v5.556c0 0.293 0.237 0.53 0.53 0.53h12.7a0.529 0.529 0 0 0 0.529-0.53v-5.556c0-0.265 0-0.265-0.265-0.265h-7.408c0-0.265 0.028-0.53-0.265-0.53z"
     fill="#ffffff"
     fill-opacity=".976"
     paint-order="markers stroke fill"
     id="path3" />
  <path
     d="m8.467 4.233c-0.293 0-0.382 0.276-0.53 0.53l-0.308 0.528h-6.835c-0.265 0-0.265 0.265-0.265 0.265v8.996c0 0.264 0.265 0.264 0.265 0.264h15.346c0.264 0 0.264-0.264 0.264-0.264v-10.054c0-0.265-0.264-0.265-0.264-0.265z"
     fill="none"
     stroke="#003579"
     stroke-opacity=".561"
     stroke-width=".529"
     paint-order="markers stroke fill"
     id="path4" />
  <path
     d="m8.467 4.233c-0.293 0-0.382 0.276-0.53 0.53l-0.308 0.528h-6.835c-0.265 0-0.265 0.265-0.265 0.265v8.996c0 0.264 0.265 0.264 0.265 0.264h15.346c0.264 0 0.264-0.264 0.264-0.264v-10.054c0-0.265-0.264-0.265-0.264-0.265z"
     fill="#6ba4e7"
     paint-order="markers stroke fill"
     id="path5" />
  <rect
     x="3.44"
     y="2.91"
     width="3.704"
     height=".529"
     rx=".265"
     ry=".265"
     fill-opacity=".267"
     paint-order="markers stroke fill"
     id="rect5" />
  <path
     d="m16.404 11.641-3.1744 3.1749h2.6458c0.29307 0 0.52864-0.23557 0.52864-0.52864z"
     fill="url(#c-3)"
     opacity=".1"
     stroke-width=".26458"
     id="path9" />
  <g
     id="g9">
    <path
       fill-rule="evenodd"
       d="m 9.3646163,6.6220182 c -0.44,0.033 -0.9,0.203 -1.32,0.413 0.84,0 1.26,0.42 1.68,0.84 l 0.8399997,0.842 v 0.42 l 0.42,0.421 1.262,-1.261 -0.42,-0.421 h -0.42 l -0.841,-0.84 c -0.34,-0.34 -0.7599997,-0.446 -1.2009997,-0.414 m 0.36,1.255 -1.68,1.681 h -0.42 l -2.5219999,2.5209998 0.84,0.84 2.5219999,-2.52 V 9.9790182 l 1.6799997,-1.682 z"
       id="path4-3"
       style="opacity:0.132" />
    <path
       fill="#ffffff"
       fill-rule="evenodd"
       d="m 9.3646534,6.6219937 c -0.44,0.033 -0.9000001,0.203 -1.3200001,0.413 0.8400001,0 1.2600001,0.42 1.6800001,0.84 l 0.8399996,0.842 v 0.42 l 0.42,0.421 1.262,-1.261 -0.42,-0.421 h -0.42 l -0.841,-0.84 c -0.34,-0.34 -0.7599996,-0.446 -1.2009996,-0.414 m 0.36,1.255 -1.6800001,1.681 h -0.42 l -2.5219996,2.5210003 0.8399996,0.84 2.522,-2.52 V 9.9789937 l 1.6799997,-1.682 z"
       id="path4-6"
       style="opacity:0.5;fill:none;stroke:#000000;stroke-opacity:1;stroke-width:0.13228906;stroke-dasharray:none;stroke-linejoin:round" />
  </g>
</svg>
