<?xml version="1.0" encoding="UTF-8" standalone="no"?>
<svg
   width="64"
   height="64"
   version="1.1"
   viewBox="0 0 16.933 16.933"
   id="svg9"
   sodipodi:docname="default-folder-games.svg"
   inkscape:version="1.4.2 (ebf0e940d0, 2025-05-08)"
   xmlns:inkscape="http://www.inkscape.org/namespaces/inkscape"
   xmlns:sodipodi="http://sodipodi.sourceforge.net/DTD/sodipodi-0.dtd"
   xmlns="http://www.w3.org/2000/svg"
   xmlns:svg="http://www.w3.org/2000/svg">
  <sodipodi:namedview
     id="namedview9"
     pagecolor="#ffffff"
     bordercolor="#000000"
     borderopacity="0.25"
     inkscape:showpageshadow="2"
     inkscape:pageopacity="0.0"
     inkscape:pagecheckerboard="0"
     inkscape:deskcolor="#d1d1d1"
     inkscape:zoom="4"
     inkscape:cx="28.5"
     inkscape:cy="57.375"
     inkscape:window-width="944"
     inkscape:window-height="549"
     inkscape:window-x="23"
     inkscape:window-y="15"
     inkscape:window-maximized="0"
     inkscape:current-layer="svg9" />
  <defs
     id="defs2">
    <linearGradient
       id="c-3"
       x1="-197.1"
       x2="-196.91"
       y1="217.68"
       y2="219.37"
       gradientTransform="rotate(-45 -338.07 -140.03)"
       gradientUnits="userSpaceOnUse">
      <stop
         offset="0"
         id="stop1" />
      <stop
         stop-opacity="0"
         offset="1"
         id="stop2" />
    </linearGradient>
  </defs>
  <path
     d="m3.175 2.381c-0.293 0-0.265 0.264-0.265 0.53h-1.058c-0.265 0-0.265 0-0.265 0.264v5.556c0 0.293 0.237 0.53 0.53 0.53h12.7a0.529 0.529 0 0 0 0.529-0.53v-5.556c0-0.265 0-0.265-0.265-0.265h-7.408c0-0.265 0.028-0.53-0.265-0.53z"
     fill="#ffffff"
     fill-opacity=".976"
     stroke="#000000"
     stroke-opacity=".268"
     stroke-width=".529"
     paint-order="markers stroke fill"
     id="path2" />
  <path
     d="m3.175 2.381c-0.293 0-0.265 0.264-0.265 0.53h-1.058c-0.265 0-0.265 0-0.265 0.264v5.556c0 0.293 0.237 0.53 0.53 0.53h12.7a0.529 0.529 0 0 0 0.529-0.53v-5.556c0-0.265 0-0.265-0.265-0.265h-7.408c0-0.265 0.028-0.53-0.265-0.53z"
     fill="#ffffff"
     fill-opacity=".976"
     paint-order="markers stroke fill"
     id="path3" />
  <path
     d="m8.467 4.233c-0.293 0-0.382 0.276-0.53 0.53l-0.308 0.528h-6.835c-0.265 0-0.265 0.265-0.265 0.265v8.996c0 0.264 0.265 0.264 0.265 0.264h15.346c0.264 0 0.264-0.264 0.264-0.264v-10.054c0-0.265-0.264-0.265-0.264-0.265z"
     fill="none"
     stroke="#003579"
     stroke-opacity=".561"
     stroke-width=".529"
     paint-order="markers stroke fill"
     id="path4" />
  <path
     d="m8.467 4.233c-0.293 0-0.382 0.276-0.53 0.53l-0.308 0.528h-6.835c-0.265 0-0.265 0.265-0.265 0.265v8.996c0 0.264 0.265 0.264 0.265 0.264h15.346c0.264 0 0.264-0.264 0.264-0.264v-10.054c0-0.265-0.264-0.265-0.264-0.265z"
     fill="#6ba4e7"
     paint-order="markers stroke fill"
     id="path5" />
  <rect
     x="3.44"
     y="2.91"
     width="3.704"
     height=".529"
     rx=".265"
     ry=".265"
     fill-opacity=".267"
     paint-order="markers stroke fill"
     id="rect5" />
  <path
     d="m 16.404,11.641 -3.1744,3.1749 h 2.6458 c 0.29307,0 0.52864,-0.23557 0.52864,-0.52864 z"
     fill="url(#c-3)"
     opacity="0.1"
     stroke-width="0.26458"
     id="path9"
     style="display:inline" />
  <g
     transform="matrix(0.75325089,0,0,0.75325089,2.3574712,-206.88659)"
     id="g7">
    <path
       fill="#ffffff"
       d="m 6.218,285.094 a 2.25,2.25 0 0 0 -2.16,2.872 l -0.332,2.594 a 0.7,0.7 0 0 0 -0.022,0.17 c 0,0.394 0.328,0.713 0.733,0.713 A 0.74,0.74 0 0 0 5,291.185 v 10e-4 l 1.437,-1.61 a 2.24,2.24 0 0 0 1.021,-0.359 h 2.017 c 0.306,0.203 0.657,0.322 1.021,0.359 l 1.437,1.61 a 0.74,0.74 0 0 0 0.563,0.258 c 0.405,0 0.733,-0.32 0.733,-0.714 a 0.7,0.7 0 0 0 -0.022,-0.17 l -0.332,-2.594 a 2.25,2.25 0 0 0 -2.159,-2.873 z"
       id="path2-7"
       style="opacity:1;fill:#5b8cc5;fill-opacity:1;stroke:#40628a;stroke-width:0.496348;stroke-linejoin:bevel;stroke-dasharray:none;stroke-opacity:1;paint-order:stroke markers fill" />
    <circle
       cx="6.085"
       cy="286.94601"
       r="0.79400003"
       paint-order="stroke markers fill"
       id="circle6"
       style="display:inline;opacity:1;mix-blend-mode:normal;fill:#6ba4e7;fill-opacity:1;fill-rule:nonzero;stroke:#000000;stroke-width:0.397078;stroke-dasharray:none;stroke-opacity:0.3;paint-order:stroke markers fill" />
    <path
       fill="#666666"
       stroke="#e1e1e1"
       stroke-linecap="square"
       stroke-width="0.529"
       d="m 7.144,288.533 a 0.53,0.53 0 0 0 -0.53,0.53 0.53,0.53 0 0 0 0.53,0.529 0.53,0.53 0 0 0 0.529,-0.53 0.53,0.53 0 0 0 -0.53,-0.529 z m 2.646,0 a 0.53,0.53 0 0 0 -0.53,0.53 0.53,0.53 0 0 0 0.53,0.529 0.53,0.53 0 0 0 0.529,-0.53 0.53,0.53 0 0 0 -0.53,-0.529 z"
       paint-order="markers stroke fill"
       id="path7-0"
       style="fill:#6ba4e7;fill-opacity:1;stroke:#40628a;stroke-width:0.528908;stroke-dasharray:none;stroke-opacity:1" />
    <path
       fill="#27ae60"
       d="M 10.053705,9.7847282 A 0.17637377,0.17637367 0 0 0 9.8773305,9.9611022 0.17637377,0.17637367 0 0 0 10.053705,10.137476 0.17637377,0.17637367 0 0 0 10.23008,9.9611022 0.17637377,0.17637367 0 0 0 10.053705,9.7847282"
       id="path3-0-2-5-2"
       style="fill:#6ba4e7;fill-opacity:1;stroke:#000000;stroke-width:0.176474;stroke-dasharray:none;stroke-opacity:0.299397;paint-order:stroke markers fill"
       transform="matrix(1.5007984,0,0,1.5007984,-4.2403956,272.92264)" />
    <path
       fill="#27ae60"
       d="M 10.582595,9.255572 A 0.17637377,0.17637367 0 0 0 10.406222,9.4319456 0.17637377,0.17637367 0 0 0 10.582595,9.6083193 0.17637377,0.17637367 0 0 0 10.75897,9.4319456 0.17637377,0.17637367 0 0 0 10.582595,9.255572"
       id="path3-0-2-5"
       style="fill:#6ba4e7;fill-opacity:1;stroke:#000000;stroke-width:0.176409;stroke-dasharray:none;stroke-opacity:0.299397;paint-order:stroke markers fill"
       transform="matrix(1.5007984,0,0,1.5007984,-4.2403956,272.92264)" />
    <path
       fill="#27ae60"
       d="M 9.5221658,9.255572 A 0.17637377,0.17637367 0 0 0 9.3457931,9.4319456 0.17637377,0.17637367 0 0 0 9.5221658,9.6083193 0.17637377,0.17637367 0 0 0 9.6985408,9.4319456 0.17637377,0.17637367 0 0 0 9.5221658,9.255572"
       id="path3-0-2-3"
       style="fill:#6ba4e7;fill-opacity:1;stroke:#000000;stroke-width:0.176409;stroke-dasharray:none;stroke-opacity:0.299397;paint-order:stroke markers fill"
       transform="matrix(1.5007984,0,0,1.5007984,-4.2403956,272.92264)" />
    <path
       fill="#27ae60"
       d="M 10.051322,8.7264157 A 0.17637377,0.17637367 0 0 0 9.8749493,8.9027893 0.17637377,0.17637367 0 0 0 10.051322,9.079163 0.17637377,0.17637367 0 0 0 10.227697,8.9027893 0.17637377,0.17637367 0 0 0 10.051322,8.7264157"
       id="path3-0-2"
       style="fill:#6ba4e7;fill-opacity:1;stroke:#000000;stroke-width:0.176409;stroke-dasharray:none;stroke-opacity:0.299397;paint-order:stroke markers fill"
       transform="matrix(1.5007984,0,0,1.5007984,-4.2403956,272.92264)" />
  </g>
</svg>
