<?xml version="1.0" encoding="UTF-8" standalone="no"?>
<svg
   width="64"
   height="64"
   version="1.1"
   viewBox="0 0 16.933 16.933"
   id="svg9"
   sodipodi:docname="default-folder-pictures.svg"
   inkscape:version="1.4.2 (ebf0e940d0, 2025-05-08)"
   xmlns:inkscape="http://www.inkscape.org/namespaces/inkscape"
   xmlns:sodipodi="http://sodipodi.sourceforge.net/DTD/sodipodi-0.dtd"
   xmlns="http://www.w3.org/2000/svg"
   xmlns:svg="http://www.w3.org/2000/svg">
  <sodipodi:namedview
     id="namedview9"
     pagecolor="#ffffff"
     bordercolor="#000000"
     borderopacity="0.25"
     inkscape:showpageshadow="2"
     inkscape:pageopacity="0.0"
     inkscape:pagecheckerboard="0"
     inkscape:deskcolor="#d1d1d1"
     inkscape:zoom="10.606602"
     inkscape:cx="26.11581"
     inkscape:cy="37.382379"
     inkscape:window-width="1920"
     inkscape:window-height="1223"
     inkscape:window-x="0"
     inkscape:window-y="0"
     inkscape:window-maximized="1"
     inkscape:current-layer="svg9" />
  <defs
     id="defs2">
    <linearGradient
       id="c-3"
       x1="-197.1"
       x2="-196.91"
       y1="217.68"
       y2="219.37"
       gradientTransform="rotate(-45 -338.07 -140.03)"
       gradientUnits="userSpaceOnUse">
      <stop
         offset="0"
         id="stop1" />
      <stop
         stop-opacity="0"
         offset="1"
         id="stop2" />
    </linearGradient>
  </defs>
  <path
     d="m3.175 2.381c-0.293 0-0.265 0.264-0.265 0.53h-1.058c-0.265 0-0.265 0-0.265 0.264v5.556c0 0.293 0.237 0.53 0.53 0.53h12.7a0.529 0.529 0 0 0 0.529-0.53v-5.556c0-0.265 0-0.265-0.265-0.265h-7.408c0-0.265 0.028-0.53-0.265-0.53z"
     fill="#ffffff"
     fill-opacity=".976"
     stroke="#000000"
     stroke-opacity=".268"
     stroke-width=".529"
     paint-order="markers stroke fill"
     id="path2" />
  <path
     d="m3.175 2.381c-0.293 0-0.265 0.264-0.265 0.53h-1.058c-0.265 0-0.265 0-0.265 0.264v5.556c0 0.293 0.237 0.53 0.53 0.53h12.7a0.529 0.529 0 0 0 0.529-0.53v-5.556c0-0.265 0-0.265-0.265-0.265h-7.408c0-0.265 0.028-0.53-0.265-0.53z"
     fill="#ffffff"
     fill-opacity=".976"
     paint-order="markers stroke fill"
     id="path3" />
  <path
     d="m8.467 4.233c-0.293 0-0.382 0.276-0.53 0.53l-0.308 0.528h-6.835c-0.265 0-0.265 0.265-0.265 0.265v8.996c0 0.264 0.265 0.264 0.265 0.264h15.346c0.264 0 0.264-0.264 0.264-0.264v-10.054c0-0.265-0.264-0.265-0.264-0.265z"
     fill="none"
     stroke="#003579"
     stroke-opacity=".561"
     stroke-width=".529"
     paint-order="markers stroke fill"
     id="path4" />
  <path
     d="m8.467 4.233c-0.293 0-0.382 0.276-0.53 0.53l-0.308 0.528h-6.835c-0.265 0-0.265 0.265-0.265 0.265v8.996c0 0.264 0.265 0.264 0.265 0.264h15.346c0.264 0 0.264-0.264 0.264-0.264v-10.054c0-0.265-0.264-0.265-0.264-0.265z"
     fill="#6ba4e7"
     paint-order="markers stroke fill"
     id="path5" />
  <rect
     x="3.44"
     y="2.91"
     width="3.704"
     height=".529"
     rx=".265"
     ry=".265"
     fill-opacity=".267"
     paint-order="markers stroke fill"
     id="rect5" />
  <path
     d="m16.404 11.641-3.1744 3.1749h2.6458c0.29307 0 0.52864-0.23557 0.52864-0.52864z"
     fill="url(#c-3)"
     opacity=".1"
     stroke-width=".26458"
     id="path9" />
  <g
     id="g9"
     transform="matrix(1.0805987,0,0,1.0805987,-0.60555846,-1.0050436)">
    <path
       stroke-opacity="0.902"
       stroke-width="0.19889"
       d="m 6.5079194,7.4146756 c -0.1729473,0 -0.312057,0.1278301 -0.312057,0.287619 v 4.7962784 c 0,0.159412 0.1391097,0.287996 0.312057,0.287996 h 3.9522216 c 0.172947,0 0.312057,-0.128584 0.312057,-0.287996 V 7.7022946 c 0,-0.1597889 -0.13911,-0.287619 -0.312057,-0.287619 z"
       style="opacity:1;stroke:#4b73a2;stroke-width:0.198963;stroke-linecap:butt;stroke-linejoin:miter;stroke-dasharray:none;stroke-opacity:1;paint-order:stroke fill markers"
       id="path1"
       fill="none"
       stroke="#006853" />
    <path
       d="m 6.5079194,7.4146756 c -0.1729473,0 -0.312057,0.1278301 -0.312057,0.287619 v 4.7962784 c 0,0.159412 0.1391097,0.287996 0.312057,0.287996 h 3.9518456 c 0.172947,0 0.312057,-0.128584 0.312057,-0.287996 V 7.7022946 c 0,-0.1594126 -0.13911,-0.287619 -0.312057,-0.287619 z"
       style="opacity:1;fill:#5b8cc5;fill-opacity:1;stroke-width:0.375966;stroke-dasharray:none;paint-order:stroke markers fill"
       id="path2-2" />
    <path
       d="M 9.0806983,7.4150518 V 9.8024764 L 9.478853,9.4039454 9.8766315,9.8021004 V 7.4146756 Z"
       id="path3-8"
       style="opacity:0.15;stroke-width:0.375972" />
    <path
       d="m 6.5244622,7.4146756 c -0.1819706,0 -0.3285998,0.1278301 -0.3285998,0.2872429 v 4.7966545 c 0,0.159412 0.1466292,0.28762 0.3285998,0.28762 H 7.290318 V 7.4146756 Z"
       opacity="0.18"
       id="path4-9"
       style="stroke-width:0.375972" />
  </g>
</svg>
